<?xml version="1.0" standalone="no"?><!DOCTYPE svg PUBLIC "-//W3C//DTD SVG 1.1//EN" "http://www.w3.org/Graphics/SVG/1.1/DTD/svg11.dtd"><svg class="icon" width="200px" height="200.00px" viewBox="0 0 1024 1024" version="1.1" xmlns="http://www.w3.org/2000/svg"><path fill="#333333" d="M977.493333 465.493333c-25.6 0-46.592 20.906667-46.592 46.506667 0 230.4-188.501333 418.901333-418.901333 418.901333-230.4 0-418.901333-188.501333-418.901333-418.901333C93.098667 281.6 281.6 93.098667 512 93.098667c25.6 0 46.506667-20.949333 46.506667-46.549334S537.6 0 512 0C230.4 0 0 230.4 0 512s230.4 512 512 512 512-230.4 512-512c0-25.6-20.906667-46.506667-46.506667-46.506667z"  /><path fill="#333333" d="M716.8 139.648l90.752 11.648-328.106667 328.106667a44.970667 44.970667 0 0 0 0 65.194666c9.301333 9.301333 20.906667 13.952 32.554667 13.952s23.296-4.650667 32.597333-13.952l328.106667-328.149333 11.648 90.752c2.346667 23.296 23.296 41.898667 46.549333 41.898667h6.997334c25.6-2.346667 44.202667-25.6 39.552-51.2l-18.602667-151.253334a93.866667 93.866667 0 0 0-81.493333-81.493333l-151.253334-18.602667c-25.6-2.304-48.853333 13.952-51.2 39.552-2.304 25.6 16.298667 48.896 41.898667 53.546667z"  /></svg>