<?xml version="1.0" standalone="no"?><!DOCTYPE svg PUBLIC "-//W3C//DTD SVG 1.1//EN" "http://www.w3.org/Graphics/SVG/1.1/DTD/svg11.dtd"><svg class="icon" width="200px" height="200.00px" viewBox="0 0 1024 1024" version="1.1" xmlns="http://www.w3.org/2000/svg"><path fill="#333333" d="M512 0C229.205333 0 0 229.205333 0 512s229.205333 512 512 512 512-229.205333 512-512S794.794667 0 512 0zM677.546667 482.816l0 66.048-110.933333 0L566.613333 605.866667l110.933333 0 0 66.048-110.933333 0 0 95.744-104.96 0 0-95.744-114.688 0L346.965333 605.866667l114.688 0 0-57.002667-114.688 0 0-66.048 94.037333 0-124.074667-231.594667 110.592 0 90.624 207.701333 1.365333 0c2.901333-7.850667 7.509333-18.944 13.653333-33.621333l74.922667-174.08 104.96 0-127.658667 231.594667L677.546667 482.816z" /></svg>