<?xml version="1.0" standalone="no"?><!DOCTYPE svg PUBLIC "-//W3C//DTD SVG 1.1//EN" "http://www.w3.org/Graphics/SVG/1.1/DTD/svg11.dtd"><svg class="icon" width="200px" height="200.00px" viewBox="0 0 1024 1024" version="1.1" xmlns="http://www.w3.org/2000/svg"><path fill="#333333" d="M896 0H128a128 128 0 0 0-128 128v768a128 128 0 0 0 128 128h768a128 128 0 0 0 128-128V128a128 128 0 0 0-128-128zM429.44 856.896H270.912v-72.768l158.528-11.52v84.288z m0-136.384l-158.528 15.232V666.88l158.528-26.624v80.256z m0-136.768l-158.528 31.616v-70.4l158.528-41.664v80.448z m0-134.656l-158.528 43.584V419.2l158.528-53.632v83.52z m175.808 407.04H475.072v-562.56L223.04 376.64v481.984h-44.352l0.128-506.496 336.896-121.472 89.536 54.4v571.072z m277.44-0.256h-201.216V144.256L379.264 246.08v-31.104l332.8-124.352 100.032 87.104v632.448h70.656v45.696z" /></svg>