<?xml version="1.0" standalone="no"?><!DOCTYPE svg PUBLIC "-//W3C//DTD SVG 1.1//EN" "http://www.w3.org/Graphics/SVG/1.1/DTD/svg11.dtd"><svg class="icon" width="200px" height="200.00px" viewBox="0 0 1024 1024" version="1.1" xmlns="http://www.w3.org/2000/svg"><path fill="#333333" d="M565.8624 805.5296c-14.848 14.848-32.768 22.272-53.6576 22.272-20.8896 0-39.2704-7.424-54.2208-22.272a72.0384 72.0384 0 0 1-22.8352-54.1696c0-20.8384 7.424-39.3216 22.8352-54.1184 14.9504-15.4624 33.3312-22.9376 54.2208-22.9376 20.8896 0 38.8096 7.4752 53.6576 22.9376 15.5136 14.848 22.8864 33.28 22.8864 54.1184 0 21.3504-7.3728 39.2192-22.8864 54.1696zM457.0624 294.7584c14.336-15.36 32.8192-23.3472 55.1424-23.3472 22.3744 0 40.8064 7.4752 55.1936 23.3472 13.9776 15.36 21.3504 34.816 21.3504 58.1632 0 19.8656-29.8496 167.424-40.192 274.7392H476.416C467.968 520.2944 435.2 372.6848 435.2 352.9216c0-22.8352 7.4752-42.24 21.9136-58.1632z m545.8944 501.76l-401.7664-700.416c-49.152-85.504-129.28-85.504-178.432 0L20.992 796.4672c-49.152 85.4528-9.0112 155.4944 89.4976 155.4944H913.92c97.9456 0 138.24-70.0416 88.9856-155.4432z"  /></svg>