<?xml version="1.0" standalone="no"?><!DOCTYPE svg PUBLIC "-//W3C//DTD SVG 1.1//EN" "http://www.w3.org/Graphics/SVG/1.1/DTD/svg11.dtd"><svg class="icon" width="200px" height="200.00px" viewBox="0 0 1024 1024" version="1.1" xmlns="http://www.w3.org/2000/svg"><path d="M512 0C228.693333 0 0 228.693333 0 512s228.693333 512 512 512 512-228.693333 512-512S795.306667 0 512 0z" fill="#FF7052" /><path d="M713.642667 713.6c-12.8 12.8-35.2 12.8-48 0l-153.6-153.6-153.6 153.6c-12.8 12.8-35.2 12.8-48 0-12.8-12.8-12.8-35.2 0-48l153.6-153.6-153.6-153.6c-12.8-12.8-12.8-35.2 0-48 12.8-12.8 35.2-12.8 48 0l153.6 153.6 153.6-153.6c12.8-12.8 35.2-12.8 48 0 12.8 12.8 12.8 35.2 0 48l-153.6 153.6 153.6 153.6c16 12.8 16 35.2 0 48z" fill="#FFFFFF" /></svg>