<?xml version="1.0" standalone="no"?><!DOCTYPE svg PUBLIC "-//W3C//DTD SVG 1.1//EN" "http://www.w3.org/Graphics/SVG/1.1/DTD/svg11.dtd"><svg class="icon" width="200px" height="200.00px" viewBox="0 0 1024 1024" version="1.1" xmlns="http://www.w3.org/2000/svg"><path d="M855.923304 235.56327l-0.558317 0.558317a0.558317 0.558317 0 0 0 0.558317-0.558317z m103.893498 149.070652a45.642419 45.642419 0 0 0-30.149121-41.082829 46.15421 46.15421 0 0 0-17.726566-2.745059c-11.724658 0-23.263211 2.838112-33.54555 8.328229l-279.949475 147.395702c-33.499023 16.656459-58.62329 52.202644-58.62329 82.817029V980.032532a45.595893 45.595893 0 0 0 30.335226 40.896724 46.107683 46.107683 0 0 0 17.726567 2.652006 76.30333 76.30333 0 0 0 33.312917-8.281703l279.902949-147.349175c33.54555-16.656459 58.716343-52.249171 58.716343-82.817029V384.633922zM549.500295 244.26371h113.291835a44.2001 44.2001 0 0 0 31.172703-12.841292 43.734836 43.734836 0 0 0-31.172703-74.814485h-113.245308V43.827889a44.153574 44.153574 0 0 0-88.121042 0v112.780044H348.133945a44.2001 44.2001 0 0 0-31.172702 12.841292 43.734836 43.734836 0 0 0 31.172702 74.814485h113.291835v112.780045a43.734836 43.734836 0 0 0 44.060521 43.827888 44.153574 44.153574 0 0 0 44.060521-43.827888V244.26371z" fill="#FF7052" /><path d="M440.070153 1023.581262a76.210278 76.210278 0 0 1-33.126812-8.374756l-0.558317-0.558317-276.273888-147.907492c-33.033759-16.749512-57.925394-52.574856-57.925394-83.375346V383.982553a46.898632 46.898632 0 0 1 12.376028-33.359444 45.688945 45.688945 0 0 1 31.963651-14.748876H120.340588c11.398973 0.325685 22.611841 3.163797 32.801127 8.374756l0.465264 0.558317 276.366941 147.860966c33.126812 16.796038 58.018447 52.621382 58.018447 83.468399v399.289745c0.418738 12.329502-4.001272 24.333318-12.282975 33.359444a45.595893 45.595893 0 0 1-31.917125 14.795402h-3.722114z" fill="#40B2B7" /></svg>