<?xml version="1.0" standalone="no"?><!DOCTYPE svg PUBLIC "-//W3C//DTD SVG 1.1//EN" "http://www.w3.org/Graphics/SVG/1.1/DTD/svg11.dtd"><svg class="icon" width="200px" height="200.00px" viewBox="0 0 1024 1024" version="1.1" xmlns="http://www.w3.org/2000/svg"><path d="M512.000366 0c283.282083 0 511.999634 228.717551 511.999634 511.999634s-228.717551 511.999634-511.999634 511.999635a511.268206 511.268206 0 0 1-511.999635-511.999635c0-283.282083 228.717551-511.999634 511.999635-511.999634z" fill="#FF7052" /><path d="M571.465466 336.018046a47.98168 47.98168 0 1 0-96.036503 0v127.999908H320.000503a47.98168 47.98168 0 1 0 0 95.96336H475.428963v160.036457a47.98168 47.98168 0 1 0 96.036503 0V559.981314h132.534763a47.98168 47.98168 0 0 0 0-95.96336H571.392323v-127.999908z" fill="#FFFFFF" /></svg>