<?xml version="1.0" standalone="no"?><!DOCTYPE svg PUBLIC "-//W3C//DTD SVG 1.1//EN" "http://www.w3.org/Graphics/SVG/1.1/DTD/svg11.dtd"><svg class="icon" width="200px" height="200.00px" viewBox="0 0 1024 1024" version="1.1" xmlns="http://www.w3.org/2000/svg"><path d="M257.128 887.176l35.6-261.088-44.824-370.528-87.04 307.24 96.264 324.384v-0.008z m549.872-5.272L767.28 626.088l44.84-370.536 84.552 307.24-89.672 319.112z" fill="#2C898D" /><path d="M303.28 771.56l-55.376-516h576.24l-41.504 551.184-479.36-35.184z" fill="#277B7E" /><path d="M0 862.544c0 59.952 229.064 108.552 511.632 108.552 282.56 0 511.624-48.6 511.624-108.552 0-59.944-229.064-108.552-511.624-108.552C229.064 754 0 802.6 0 862.544z" fill="#40B2B7" fill-opacity=".11" /><path d="M417.76 52.944l440.928 98.88-108.872 485.488-440.928-98.88 108.88-485.488z" fill="#F4694C" /><path d="M312.584 163.44l450.576 34.272-37.736 496.112-450.576-34.272 37.736-496.112z" fill="#F46446" /><path d="M367.184 79.256l448.168 57.736-63.56 493.472-448.176-57.736 63.568-493.472z" fill="#FF8F78" /><path d="M392.952 194.32a33.864 33.864 0 1 0 67.728 0 33.864 33.864 0 0 0-67.728 0z m285.776 53.736l-179.6-23.2a10.64 10.64 0 0 1 2.696-21.104l179.592 23.208a10.64 10.64 0 0 1-2.688 21.104z m6.96 82.864l-196.952-25.416a10.64 10.64 0 1 1 2.696-21.104l197 25.376a10.64 10.64 0 1 1-2.688 21.096l-0.056 0.048z m24.584 85.136L401.6 376.288a10.64 10.64 0 0 1 2.696-21.104L712.96 394.96a10.656 10.656 0 0 1 9.2 11.888 10.64 10.64 0 0 1-11.888 9.2z" fill="#FFFFFF" /><path d="M253.176 881.904l-92.304-319.12h735.8l-89.672 319.12H253.176z" fill="#40B2B7" /><path d="M649.4 757.952H408.096v-60.656a10.552 10.552 0 0 1 21.096 0v39.56h199.112v-39.56a10.552 10.552 0 0 1 21.104 0v60.656h-0.008z" fill="#FFFFFF" /></svg>